<svg id="Layer_1" data-name="Layer 1" xmlns="http://www.w3.org/2000/svg" viewBox="0 0 1920 1080"><title>blackArrow</title><polygon points="640.65 792.62 826.22 685.24 1088.75 533.11 825.97 381.41 640.23 274.55 640.19 231.44 1162.75 533.11 640.69 835.64 640.65 792.62"/><path d="M640.69,232.3l260.53,150.4,260.53,150.4L641.19,834.78l0-41.87L826.47,685.67,1088.25,534l1.5-.87-1.5-.86L826.22,381,640.73,274.26l0-42m-1-1.73,0,45.13a4.64,4.64,0,0,1,.27.38V275L825.72,381.84l262,151.27L826,684.81,640.15,792.33l0,44.18,523.56-303.4-262-151.27-262-151.27Z"/><path d="M639.77,322.09l.17,211.45v13L640,534V322.21Z"/><path d="M639.77,322.09l.17,211.45v13L640,534V322.21l-.23-.13Z"/><polygon points="481.19 231.44 1003.75 533.11 481.69 835.64 481.19 231.44"/><path d="M481.69,232.3l260.53,150.4,260.53,150.4L742.47,683.94,482.19,834.78l-.25-301.24-.25-301.24m-1-1.73.25,303,.25,303L743,684.81l261.78-151.7-262-151.27-262-151.27Z"/><path d="M396,178.88V906l32-23.12V193.69C417.19,189.2,406.48,184.36,396,178.88Z"/></svg>