<?xml version="1.0" encoding="utf-8"?>
<!-- Generator: Adobe Illustrator 22.0.0, SVG Export Plug-In . SVG Version: 6.00 Build 0)  -->
<svg version="1.1" xmlns="http://www.w3.org/2000/svg" xmlns:xlink="http://www.w3.org/1999/xlink" x="0px" y="0px"
	 viewBox="0 0 100 125" style="enable-background:new 0 0 100 125;" xml:space="preserve">
<g id="Layer_2">
</g>
<g id="Layer_1">
	<path d="M2.5,12.5v75h95v-75H2.5z M16.9,82.7H7.3V64h9.6V82.7z M16.9,59.3H7.3V40.6h9.6V59.3z M16.9,35.8H7.3V17.1h9.6V35.8z
		 M66.5,54.1L41.9,69.5c-2.2,1.4-5.1-0.2-5.1-2.8V36c0-2.6,2.9-4.2,5.1-2.8l24.6,15.4C68.6,49.7,68.6,52.8,66.5,54.1z M92.7,82.7
		h-9.6V64h9.6V82.7z M92.7,59.3h-9.6V40.6h9.6V59.3z M92.7,35.8h-9.6V17.1h9.6V35.8z"/>
</g>
</svg>
