<?xml version="1.0" encoding="utf-8"?>
<!-- Generator: Adobe Illustrator 22.0.0, SVG Export Plug-In . SVG Version: 6.00 Build 0)  -->
<svg version="1.1" id="Layer_1" xmlns="http://www.w3.org/2000/svg" xmlns:xlink="http://www.w3.org/1999/xlink" x="0px" y="0px"
	 viewBox="0 0 100 125" style="enable-background:new 0 0 100 125;" xml:space="preserve">
<g>
	<path d="M63,81.1H37c-1,0-1.8,0.8-1.8,1.8v4.2c0,1,0.8,1.8,1.8,1.8h26c1,0,1.8-0.8,1.8-1.8v-4.2C64.8,81.9,64,81.1,63,81.1z"/>
	<path d="M54.1,31.2c-0.5-0.9-1.3-1.6-2.2-2v21.5c2.2,0.8,3.7,2.9,3.7,5.3c0,3.1-2.5,5.6-5.6,5.6s-5.6-2.5-5.6-5.6
		c0-2.4,1.6-4.5,3.7-5.3V29.3c-0.9,0.4-1.6,1.1-2.2,1.9L32.5,54.6c-0.9,1.5-1.2,3.3-0.8,5l3.2,15.9c0.2,0.8,0.9,1.5,1.8,1.5h26.7
		c0.9,0,1.6-0.6,1.8-1.5l3.2-15.9c0.4-1.7,0.1-3.5-0.8-5L54.1,31.2z"/>
	<path d="M92.6,20.8c2.7,0,4.9-2.2,4.9-4.9l0,0c0-2.7-2.2-4.9-4.9-4.9c-2.1,0-3.9,1.4-4.6,3.3H55.2c-0.1,0-0.3,0-0.4,0v-3.2h-9.7
		v3.2c-0.1,0-0.3,0-0.4,0H12C11.3,12.4,9.5,11,7.4,11c-2.7,0-4.9,2.2-4.9,4.9l0,0c0,2.7,2.2,4.9,4.9,4.9c2.1,0,3.9-1.4,4.6-3.3h20.7
		c-14.6,6.2-25.2,19.9-27,36.3H2.5v9.7h9.7v-9.7H9.5c2.2-18.6,17-33.4,35.6-35.6v2.7h9.7v-2.7c18.6,2.2,33.4,17,35.6,35.6h-2.7v9.7
		h9.7v-9.7h-3.2c-1.8-16.4-12.4-30.1-27-36.3H88C88.7,19.5,90.5,20.8,92.6,20.8z"/>
</g>
</svg>
