<?xml version="1.0" encoding="utf-8"?>
<!-- Generator: Adobe Illustrator 22.0.0, SVG Export Plug-In . SVG Version: 6.00 Build 0)  -->
<svg version="1.1" id="Layer_1" xmlns="http://www.w3.org/2000/svg" xmlns:xlink="http://www.w3.org/1999/xlink" x="0px" y="0px"
	 viewBox="0 0 60 55" style="enable-background:new 0 0 60 55;" xml:space="preserve">
<title>54 -Web Development- (Solid)</title>
<desc>Created with Sketch.</desc>
<g>
	<g transform="translate(-480.000000, -948.000000)">
		<g transform="translate(480.000000, 948.000000)">
			<path d="M58,42H2v-2h22.5c0.5,0.6,1.2,1,2,1h8c0.8,0,1.5-0.4,2-1H58V42z M6,5c0-0.6,0.4-1,1-1h46c0.6,0,1,0.4,1,1v30
				c0,0.6-0.4,1-1,1H7c-0.6,0-1-0.4-1-1V5z M58.4,38H58V4c0-2.2-1.8-4-4-4H6C3.8,0,2,1.8,2,4v34H1.6C0.7,38,0,38.7,0,39.6v2.8
				C0,43.3,0.7,44,1.6,44h56.8c0.9,0,1.6-0.7,1.6-1.6v-2.8C60,38.7,59.3,38,58.4,38L58.4,38z"/>
			<path d="M44.8,20.6l-4,5C40.6,25.9,40.3,26,40,26c-0.2,0-0.4-0.1-0.6-0.2c-0.4-0.3-0.5-1-0.2-1.4l3.5-4.4l-3.5-4.4
				c-0.3-0.4-0.3-1.1,0.2-1.4c0.4-0.3,1.1-0.3,1.4,0.2l4,5C45.1,19.7,45.1,20.3,44.8,20.6L44.8,20.6z M36,26h-2c-0.6,0-1-0.4-1-1
				s0.4-1,1-1h2c0.6,0,1,0.4,1,1S36.6,26,36,26L36,26z M30,26h-2c-0.6,0-1-0.4-1-1s0.4-1,1-1h2c0.6,0,1,0.4,1,1S30.6,26,30,26L30,26
				z M25,21c0,0.6-0.4,1-1,1s-1-0.4-1-1v-6c0-0.6,0.4-1,1-1s1,0.4,1,1V21z M24,26c-0.6,0-1-0.4-1-1s0.4-1,1-1s1,0.4,1,1
				S24.6,26,24,26L24,26z M20.6,25.8C20.4,25.9,20.2,26,20,26c-0.3,0-0.6-0.1-0.8-0.4l-4-5c-0.3-0.4-0.3-0.9,0-1.2l4-5
				c0.3-0.4,1-0.5,1.4-0.2s0.5,1,0.2,1.4L17.3,20l3.5,4.4C21.1,24.8,21.1,25.4,20.6,25.8L20.6,25.8z M8,34h44V6H8V34z"/>
		</g>
	</g>
</g>
</svg>
